HIERARCHY
ROOT hip
{
  OFFSET 0.00112043 5.09927 -9.65472
  CHANNELS 6 Xposition Yposition Zposition Zrotation Xrotation Yrotation
  JOINT abdomen
  {
    OFFSET 0 -1.186 -1.5018
    CHANNELS 3 Zrotation Xrotation Yrotation
    JOINT abdomen2
    {
      OFFSET 0 9.964 0.2134
      CHANNELS 3 Zrotation Xrotation Yrotation
      JOINT chest
      {
        OFFSET 0 13.134 -3.2573
        CHANNELS 3 Zrotation Xrotation Yrotation
        JOINT neck
        {
          OFFSET 0 20.686 -1.6905
          CHANNELS 3 Zrotation Xrotation Yrotation
          JOINT head
          {
            OFFSET 0 7.238 -0.1237
            CHANNELS 3 Zrotation Xrotation Yrotation
            End Site
            {
              OFFSET 0 0 0
            }
          }
        }
        JOINT lCollar
        {
          OFFSET 1.7069 20.075 5.0056
          CHANNELS 3 Zrotation Xrotation Yrotation
          JOINT lShldr
          {
            OFFSET 13.6458 -0.047 -4.849
            CHANNELS 3 Zrotation Xrotation Yrotation
            JOINT lForeArm
            {
              OFFSET 28.3255 -0.9759 2.2888
              CHANNELS 3 Zrotation Xrotation Yrotation
              JOINT lHand
              {
                OFFSET 22.1583 -0.53 10.8316
                CHANNELS 3 Zrotation Xrotation Yrotation
                JOINT lThumb1
                {
                  OFFSET 0.786 0.112 2.5817
                  CHANNELS 3 Zrotation Xrotation Yrotation
                  JOINT lThumb2
                  {
                    OFFSET 0.3601 -0.878 4.2331
                    CHANNELS 3 Zrotation Xrotation Yrotation
                    JOINT lThumb2_End
                    {
                      OFFSET 1.8127 -1.216 2.2227
                      CHANNELS 3 Zrotation Xrotation Yrotation
                      End Site
                      {
                        OFFSET 0.0181 -0.0122 0.0222
                      }
                    }
                  }
                }
                JOINT lCarpal1
                {
                  OFFSET 0.9571 1.114 1.7695
                  CHANNELS 3 Zrotation Xrotation Yrotation
                  JOINT lIndex1
                  {
                    OFFSET 4.1246 0.487 4.1451
                    CHANNELS 3 Zrotation Xrotation Yrotation
                    JOINT lIndex2
                    {
                      OFFSET 3.4052 -1.454 2.7682
                      CHANNELS 3 Zrotation Xrotation Yrotation
                      JOINT lIndex2_End
                      {
                        OFFSET 1.4531 -1.795 1.2713
                        CHANNELS 3 Zrotation Xrotation Yrotation
                        End Site
                        {
                          OFFSET 0.0145 -0.0179 0.0127
                        }
                      }
                    }
                  }
                  JOINT lMid1
                  {
                    OFFSET 5.6954 0.21 2.1184
                    CHANNELS 3 Zrotation Xrotation Yrotation
                    JOINT lMid2
                    {
                      OFFSET 3.9766 -1.54 2.3863
                      CHANNELS 3 Zrotation Xrotation Yrotation
                      JOINT lMid2_End
                      {
                        OFFSET 1.4042 -1.926 1.125
                        CHANNELS 3 Zrotation Xrotation Yrotation
                        End Site
                        {
                          OFFSET 0.014 -0.0193 0.0113
                        }
                      }
                    }
                  }
                }
                JOINT lCarpal2
                {
                  OFFSET 2.0956 0.66 -0.3894
                  CHANNELS 3 Zrotation Xrotation Yrotation
                  JOINT lRing1
                  {
                    OFFSET 5.0395 -0.09 2.4971
                    CHANNELS 3 Zrotation Xrotation Yrotation
                    JOINT lRing2
                    {
                      OFFSET 3.7921 -1.552 1.4806
                      CHANNELS 3 Zrotation Xrotation Yrotation
                      JOINT lRing2_End
                      {
                        OFFSET 1.4655 -1.808 0.9609
                        CHANNELS 3 Zrotation Xrotation Yrotation
                        End Site
                        {
                          OFFSET 0.0147 -0.0181 0.0096
                        }
                      }
                    }
                  }
                  JOINT lPinky1
                  {
                    OFFSET 4.9141 -1.269 0.3591
                    CHANNELS 3 Zrotation Xrotation Yrotation
                    JOINT lPinky2
                    {
                      OFFSET 3.1477 -1.685 0.8462
                      CHANNELS 3 Zrotation Xrotation Yrotation
                      JOINT lPinky2_End
                      {
                        OFFSET 0.8055 -1.585 0.7955
                        CHANNELS 3 Zrotation Xrotation Yrotation
                        End Site
                        {
                          OFFSET 0.0081 -0.0158 0.008
                        }
                      }
                    }
                  }
                }
              }
            }
          }
        }
        JOINT rCollar
        {
          OFFSET -1.7069 20.075 5.0056
          CHANNELS 3 Zrotation Xrotation Yrotation
          JOINT rShldr
          {
            OFFSET -13.6458 -0.047 -4.849
            CHANNELS 3 Zrotation Xrotation Yrotation
            JOINT rForeArm
            {
              OFFSET -28.3255 -0.9759 2.2888
              CHANNELS 3 Zrotation Xrotation Yrotation
              JOINT rHand
              {
                OFFSET -22.1583 -0.53 10.8316
                CHANNELS 3 Zrotation Xrotation Yrotation
                JOINT rThumb1
                {
                  OFFSET -0.786 0.112 2.5817
                  CHANNELS 3 Zrotation Xrotation Yrotation
                  JOINT rThumb2
                  {
                    OFFSET -0.3601 -0.878 4.2331
                    CHANNELS 3 Zrotation Xrotation Yrotation
                    JOINT rThumb2_End
                    {
                      OFFSET -1.8127 -1.216 2.2227
                      CHANNELS 3 Zrotation Xrotation Yrotation
                      End Site
                      {
                        OFFSET -0.0181 -0.0122 0.0222
                      }
                    }
                  }
                }
                JOINT rCarpal1
                {
                  OFFSET -0.9571 1.114 1.7695
                  CHANNELS 3 Zrotation Xrotation Yrotation
                  JOINT rIndex1
                  {
                    OFFSET -4.1246 0.487 4.1451
                    CHANNELS 3 Zrotation Xrotation Yrotation
                    JOINT rIndex2
                    {
                      OFFSET -3.4052 -1.454 2.7682
                      CHANNELS 3 Zrotation Xrotation Yrotation
                      JOINT rIndex2_End
                      {
                        OFFSET -1.4531 -1.795 1.2713
                        CHANNELS 3 Zrotation Xrotation Yrotation
                        End Site
                        {
                          OFFSET -0.0145 -0.018 0.0127
                        }
                      }
                    }
                  }
                  JOINT rMid1
                  {
                    OFFSET -5.6954 0.21 2.1184
                    CHANNELS 3 Zrotation Xrotation Yrotation
                    JOINT rMid2
                    {
                      OFFSET -3.9766 -1.54 2.3863
                      CHANNELS 3 Zrotation Xrotation Yrotation
                      JOINT rMid2_End
                      {
                        OFFSET -1.4042 -1.926 1.125
                        CHANNELS 3 Zrotation Xrotation Yrotation
                        End Site
                        {
                          OFFSET -0.014 -0.0193 0.0113
                        }
                      }
                    }
                  }
                }
                JOINT rCarpal2
                {
                  OFFSET -2.0956 0.66 -0.3894
                  CHANNELS 3 Zrotation Xrotation Yrotation
                  JOINT rRing1
                  {
                    OFFSET -5.0395 -0.09 2.4971
                    CHANNELS 3 Zrotation Xrotation Yrotation
                    JOINT rRing2
                    {
                      OFFSET -3.7921 -1.552 1.4806
                      CHANNELS 3 Zrotation Xrotation Yrotation
                      JOINT rRing2_End
                      {
                        OFFSET -1.4655 -1.808 0.9609
                        CHANNELS 3 Zrotation Xrotation Yrotation
                        End Site
                        {
                          OFFSET -0.0147 -0.0181 0.0096
                        }
                      }
                    }
                  }
                  JOINT rPinky1
                  {
                    OFFSET -4.9141 -1.269 0.3592
                    CHANNELS 3 Zrotation Xrotation Yrotation
                    JOINT rPinky2
                    {
                      OFFSET -3.1477 -1.685 0.8462
                      CHANNELS 3 Zrotation Xrotation Yrotation
                      JOINT rPinky2_End
                      {
                        OFFSET -0.8055 -1.585 0.7955
                        CHANNELS 3 Zrotation Xrotation Yrotation
                        End Site
                        {
                          OFFSET -0.0081 -0.0158 0.008
                        }
                      }
                    }
                  }
                }
              }
            }
          }
        }
      }
    }
  }
  JOINT lThigh
  {
    OFFSET 8.367 -8.2066 0.5982
    CHANNELS 3 Zrotation Xrotation Yrotation
    JOINT lShin
    {
      OFFSET 2.1923 -43.463 -0.4932
      CHANNELS 3 Zrotation Xrotation Yrotation
      JOINT lFoot
      {
        OFFSET 0.7333 -45.8593 -2.6451
        CHANNELS 3 Zrotation Xrotation Yrotation
        End Site
        {
          OFFSET 2.6618 -4.2699 12.3931
        }
      }
    }
  }
  JOINT rThigh
  {
    OFFSET -8.367 -8.2066 0.5982
    CHANNELS 3 Zrotation Xrotation Yrotation
    JOINT rShin
    {
      OFFSET -2.1923 -43.463 -0.4931
      CHANNELS 3 Zrotation Xrotation Yrotation
      JOINT rFoot
      {
        OFFSET -0.7333 -45.8593 -2.6451
        CHANNELS 3 Zrotation Xrotation Yrotation
        End Site
        {
          OFFSET -2.6618 -4.2699 12.3931
        }
      }
    }
  }
}
MOTION
Frames:	6
Frame Time:	0.0333333
42.3142 47.1994 10.4939 0 12.8544 -0 -0.0658218 3.06844 -0.39349 -0.110742 6.13721 -0.785136 -0.110743 6.13722 -0.785137 2.20373e-006 1.31931 3.72835e-006 -9.30909 -10.4971 -13.5498 -10.3501 8.83294 -26.6394 -19.395 -5.5124 16.2714 -37.4907 27.2535 -16.5697 37.5494 -20.7873 -4.06563 -7.95139e-016 -3.18055e-015 -1.59028e-015 -2.38542e-015 -3.18055e-015 -0 6.36111e-015 0 1.59028e-015 -7.95139e-016 -3.18055e-015 -1.59028e-015 -2.38542e-015 6.36111e-015 1.11319e-014 7.95139e-015 -3.18055e-015 1.59028e-015 7.95139e-016 3.18055e-015 -3.18055e-015 -2.38542e-015 6.36111e-015 1.11319e-014 7.95139e-015 -3.18055e-015 1.59028e-015 7.95139e-016 3.18055e-015 -3.18055e-015 -7.95139e-016 -3.18055e-015 -1.59028e-015 -2.38542e-015 6.36111e-015 1.11319e-014 7.95139e-015 -3.18055e-015 1.59028e-015 7.95139e-016 3.18055e-015 -3.18055e-015 -2.38542e-015 6.36111e-015 1.11319e-014 7.95139e-015 -3.18055e-015 1.59028e-015 7.95139e-016 3.18055e-015 -3.18055e-015 9.49872 8.65385 26.0189 19.7606 -5.5087 -15.6934 36.8803 26.7883 16.7933 -37.8509 -21.2773 3.41078 5.78411e-007 -1.13178e-006 -8.4198e-007 -3.17489e-006 -3.72781e-006 -2.12928e-006 -3.32055e-007 -1.50533e-006 6.90628e-007 -7.95139e-015 0 -3.18055e-015 5.78411e-007 -1.13178e-006 -8.4198e-007 -3.17489e-006 -3.72781e-006 -2.12928e-006 -3.32055e-007 -1.50533e-006 6.90628e-007 5.78411e-007 -1.13178e-006 -8.4198e-007 -3.17489e-006 -3.72781e-006 -2.12928e-006 -3.32055e-007 -1.50533e-006 6.90628e-007 -7.95139e-015 0 -3.18055e-015 5.78411e-007 -1.13178e-006 -8.4198e-007 -3.17489e-006 -3.72781e-006 -2.12928e-006 -3.32055e-007 -1.50533e-006 6.90628e-007 5.78411e-007 -1.13178e-006 -8.4198e-007 -3.17489e-006 -3.72781e-006 -2.12928e-006 -3.32055e-007 -1.50533e-006 6.90628e-007 7.38329 -12.9893 15.2998 14.2781 84.4643 -10.4177 -24.2457 59.2327 34.0736 -7.4964 -12.8056 -15.4137 -15.0342 84.311 11.2358 25.2132 60.1268 -34.9776 
42.3142 47.2466 10.2574 0 13.5678 -0 -0.0649546 3.00586 -0.393701 -0.109418 6.01207 -0.785609 -0.109418 6.01207 -0.785608 4.92015e-007 1.60952 2.32495e-006 -9.28718 -11.1223 -13.5787 -10.3501 8.83292 -26.6394 -19.395 -5.5124 16.2714 -37.6296 27.3518 -16.6788 37.85 -20.883 -4.0668 -3.87856e-007 1.46814e-006 7.31164e-007 -1.25136e-007 3.26242e-007 2.65778e-007 -3.87856e-007 1.46814e-006 7.31164e-007 2.38542e-015 0 -0 -3.87856e-007 1.46814e-006 7.31164e-007 -1.25136e-007 3.26242e-007 2.65778e-007 -3.87856e-007 1.46814e-006 7.31164e-007 -3.87856e-007 1.46814e-006 7.31164e-007 -1.25136e-007 3.26242e-007 2.65778e-007 -3.87856e-007 1.46814e-006 7.31164e-007 2.38542e-015 0 -0 -3.87856e-007 1.46814e-006 7.31164e-007 -1.25136e-007 3.26242e-007 2.65778e-007 -3.87856e-007 1.46814e-006 7.31164e-007 -3.87856e-007 1.46814e-006 7.31164e-007 -1.25136e-007 3.26242e-007 2.65778e-007 -3.87856e-007 1.46814e-006 7.31164e-007 9.49872 8.65383 26.0189 19.7606 -5.50871 -15.6934 37.0728 26.9191 16.9395 -38.1748 -21.3635 3.38789 -1.87757e-006 -6.43601e-007 -2.85601e-006 3.34056e-006 8.4077e-007 -1.89369e-007 2.20938e-006 2.14798e-006 2.16374e-006 5.56597e-015 -3.18055e-015 3.18055e-015 -1.87757e-006 -6.43601e-007 -2.85601e-006 3.34056e-006 8.4077e-007 -1.89369e-007 2.20938e-006 2.14798e-006 2.16374e-006 -1.87757e-006 -6.43601e-007 -2.85601e-006 3.34056e-006 8.4077e-007 -1.89369e-007 2.20938e-006 2.14798e-006 2.16374e-006 5.56597e-015 -3.18055e-015 3.18055e-015 -1.87757e-006 -6.43601e-007 -2.85601e-006 3.34056e-006 8.4077e-007 -1.89369e-007 2.20938e-006 2.14798e-006 2.16374e-006 -1.87757e-006 -6.43601e-007 -2.85601e-006 3.34056e-006 8.4077e-007 -1.89369e-007 2.20938e-006 2.14798e-006 2.16374e-006 7.48133 -14.1518 15.5028 15.6186 84.8156 -11.736 -24.2741 59.2539 34.11 -7.59456 -13.9769 -15.6181 -16.4048 84.6656 12.5837 25.2433 60.1474 -35.0155 
42.3142 47.2929 10.0203 0 14.2811 -0 -0.0640861 2.94325 -0.393908 -0.108092 5.88692 -0.786076 -0.108092 5.88692 -0.786076 -8.41175e-006 1.89975 4.03427e-006 -9.2655 -11.748 -13.6072 -10.3501 8.83292 -26.6394 -19.395 -5.51242 16.2714 -37.7684 27.4504 -16.7878 38.1506 -20.9788 -4.06745 -3.18055e-015 0 -1.11319e-014 3.87346e-007 -1.4674e-006 -7.32349e-007 3.87346e-007 -1.4674e-006 -7.32349e-007 -4.77083e-015 0 -7.95139e-015 4.77083e-015 9.54166e-015 1.43125e-014 3.87346e-007 -1.4674e-006 -7.32349e-007 3.87346e-007 -1.4674e-006 -7.32349e-007 4.77083e-015 9.54166e-015 1.43125e-014 3.87346e-007 -1.4674e-006 -7.32349e-007 3.87346e-007 -1.4674e-006 -7.32349e-007 -4.77083e-015 0 -7.95139e-015 4.77083e-015 9.54166e-015 1.43125e-014 3.87346e-007 -1.4674e-006 -7.32349e-007 3.87346e-007 -1.4674e-006 -7.32349e-007 4.77083e-015 9.54166e-015 1.43125e-014 3.87346e-007 -1.4674e-006 -7.32349e-007 3.87346e-007 -1.4674e-006 -7.32349e-007 9.49872 8.65383 26.0189 19.7606 -5.5087 -15.6934 37.2651 27.0504 17.0854 -38.499 -21.4497 3.36443 -6.36111e-015 3.18055e-015 1.59028e-015 5.05891e-007 -1.38783e-006 -3.00686e-006 -1.59028e-015 0 -0 -4.77083e-015 0 -0 -3.97569e-015 9.54166e-015 4.77083e-015 5.05891e-007 -1.38783e-006 -3.00686e-006 7.15625e-015 -6.36111e-015 3.18055e-015 -3.97569e-015 9.54166e-015 4.77083e-015 5.05891e-007 -1.38783e-006 -3.00686e-006 7.15625e-015 -6.36111e-015 3.18055e-015 -4.77083e-015 0 -0 -3.97569e-015 9.54166e-015 4.77083e-015 5.05891e-007 -1.38783e-006 -3.00686e-006 7.15625e-015 -6.36111e-015 3.18055e-015 -3.97569e-015 9.54166e-015 4.77083e-015 5.05891e-007 -1.38783e-006 -3.00686e-006 7.15625e-015 -6.36111e-015 3.18055e-015 7.58364 -15.3133 15.7091 17.1521 85.1634 -13.2471 -24.3027 59.2752 34.1465 -7.69709 -15.1468 -15.8257 -17.9675 85.0162 14.1236 25.2737 60.168 -35.0536 
42.3143 47.3385 9.7826 0 14.9943 -0 -0.0632161 2.88072 -0.394117 -0.106764 5.76177 -0.78654 -0.106764 5.76177 -0.78654 8.63691e-007 2.1894 1.4385e-006 -9.24399 -12.3741 -13.6352 -10.3501 8.83293 -26.6394 -19.395 -5.5124 16.2714 -37.907 27.5492 -16.8966 38.4515 -21.0746 -4.06755 2.65514e-006 1.92313e-006 1.0288e-006 2.38542e-015 6.36111e-015 -4.77083e-015 4.77083e-015 -3.18055e-015 -4.77083e-015 7.95139e-016 3.18055e-015 -1.59028e-015 2.65514e-006 1.92313e-006 1.0288e-006 -3.18055e-015 -3.18055e-015 -3.18055e-015 4.77083e-015 -3.18055e-015 1.59028e-015 2.65514e-006 1.92313e-006 1.0288e-006 -3.18055e-015 -3.18055e-015 -3.18055e-015 4.77083e-015 -3.18055e-015 1.59028e-015 7.95139e-016 3.18055e-015 -1.59028e-015 2.65514e-006 1.92313e-006 1.0288e-006 -3.18055e-015 -3.18055e-015 -3.18055e-015 4.77083e-015 -3.18055e-015 1.59028e-015 2.65514e-006 1.92313e-006 1.0288e-006 -3.18055e-015 -3.18055e-015 -3.18055e-015 4.77083e-015 -3.18055e-015 1.59028e-015 9.49872 8.65384 26.0189 19.7606 -5.50869 -15.6934 37.4572 27.1821 17.231 -38.8234 -21.5357 3.34045 2.22726e-007 -1.68014e-006 -8.1604e-007 8.40068e-007 1.11363e-007 -3.70054e-006 4.77149e-007 -2.3757e-006 -2.31853e-006 -7.95139e-016 -3.18055e-015 1.59028e-015 2.22726e-007 -1.68014e-006 -8.1604e-007 8.40068e-007 1.11363e-007 -3.70054e-006 4.77149e-007 -2.3757e-006 -2.31853e-006 2.22726e-007 -1.68014e-006 -8.1604e-007 8.40068e-007 1.11363e-007 -3.70054e-006 4.77149e-007 -2.3757e-006 -2.31853e-006 -7.95139e-016 -3.18055e-015 1.59028e-015 2.22726e-007 -1.68014e-006 -8.1604e-007 8.40068e-007 1.11363e-007 -3.70054e-006 4.77149e-007 -2.3757e-006 -2.31853e-006 2.22726e-007 -1.68014e-006 -8.1604e-007 8.40068e-007 1.11363e-007 -3.70054e-006 4.77149e-007 -2.3757e-006 -2.31853e-006 7.69025 -16.4742 15.9186 18.9219 85.5074 -14.9947 -24.3316 59.2966 34.1834 -7.80409 -16.3153 -16.0367 -19.7623 85.3619 15.8955 25.3043 60.1889 -35.0921 
42.3143 47.3831 9.54438 0 15.7072 -0 -0.0623454 2.81813 -0.394322 -0.105435 5.63662 -0.787 -0.105435 5.63662 -0.787 4.30952e-007 2.47912 -2.32817e-006 -9.22275 -13.0005 -13.6631 -10.3501 8.83297 -26.6394 -19.395 -5.5124 16.2714 -38.0457 27.6482 -17.0052 38.7526 -21.1704 -4.0671 4.77083e-015 3.18055e-015 -3.18055e-015 5.56597e-015 -3.18055e-015 -1.59028e-015 7.15625e-015 3.18055e-015 -3.18055e-015 3.18055e-015 6.36111e-015 -0 9.54166e-015 1.59028e-014 3.18055e-015 1.59028e-015 -3.18055e-015 -3.18055e-015 3.18055e-015 -3.18055e-015 -0 9.54166e-015 1.59028e-014 3.18055e-015 1.59028e-015 -3.18055e-015 -3.18055e-015 3.18055e-015 -3.18055e-015 -0 3.18055e-015 6.36111e-015 -0 9.54166e-015 1.59028e-014 3.18055e-015 1.59028e-015 -3.18055e-015 -3.18055e-015 3.18055e-015 -3.18055e-015 -0 9.54166e-015 1.59028e-014 3.18055e-015 1.59028e-015 -3.18055e-015 -3.18055e-015 3.18055e-015 -3.18055e-015 -0 9.49872 8.65388 26.0189 19.7606 -5.50869 -15.6934 37.6492 27.3142 17.3762 -39.1481 -21.6212 3.31589 8.01035e-007 -8.80994e-007 -3.01055e-006 8.82781e-032 -3.18055e-015 1.59028e-015 4.70143e-007 -2.38254e-006 -2.31334e-006 -4.77083e-015 0 4.77083e-015 8.01035e-007 -8.80994e-007 -3.01055e-006 -1.59028e-015 3.18055e-015 1.59028e-015 4.70143e-007 -2.38254e-006 -2.31334e-006 8.01035e-007 -8.80994e-007 -3.01055e-006 -1.59028e-015 3.18055e-015 1.59028e-015 4.70143e-007 -2.38254e-006 -2.31334e-006 -4.77083e-015 0 4.77083e-015 8.01035e-007 -8.80994e-007 -3.01055e-006 -1.59028e-015 3.18055e-015 1.59028e-015 4.70143e-007 -2.38254e-006 -2.31334e-006 8.01035e-007 -8.80994e-007 -3.01055e-006 -1.59028e-015 3.18055e-015 1.59028e-015 4.70143e-007 -2.38254e-006 -2.31334e-006 7.80138 -17.6336 16.1317 20.98 85.8461 -17.0319 -24.3608 59.3183 34.2208 -7.91548 -17.4837 -16.2512 -21.8486 85.7033 17.9581 25.335 60.2098 -35.1308 
42.3143 47.427 9.30558 0 16.4198 -0 -0.061477 2.75557 -0.394529 -0.104112 5.5115 -0.787462 -0.104112 5.51151 -0.787463 -9.06202e-007 2.76863 5.65504e-006 -9.20176 -13.6273 -13.6909 -10.3501 8.83292 -26.6394 -19.395 -5.5124 16.2714 -38.1842 27.7475 -17.1136 39.0538 -21.2661 -4.06612 7.15625e-015 6.36111e-015 -7.95139e-015 3.18055e-015 9.54166e-015 -6.36111e-015 -3.7018e-006 2.15899e-006 9.11213e-007 6.36111e-015 6.36111e-015 -6.36111e-015 2.38542e-015 3.18055e-015 1.11319e-014 5.56597e-015 3.18055e-015 -6.36111e-015 -3.7018e-006 2.15899e-006 9.11213e-007 2.38542e-015 3.18055e-015 1.11319e-014 5.56597e-015 3.18055e-015 -6.36111e-015 -3.7018e-006 2.15899e-006 9.11213e-007 6.36111e-015 6.36111e-015 -6.36111e-015 2.38542e-015 3.18055e-015 1.11319e-014 5.56597e-015 3.18055e-015 -6.36111e-015 -3.7018e-006 2.15899e-006 9.11213e-007 2.38542e-015 3.18055e-015 1.11319e-014 5.56597e-015 3.18055e-015 -6.36111e-015 -3.7018e-006 2.15899e-006 9.11213e-007 9.49872 8.65383 26.0189 19.7606 -5.50868 -15.6934 37.841 27.4468 17.5211 -39.4725 -21.7078 3.29096 5.56597e-015 -3.18055e-015 -6.36111e-015 6.36111e-015 0 -0 -3.30526e-007 -1.50061e-006 6.9887e-007 4.77083e-015 -3.18055e-015 -3.18055e-015 -2.38542e-015 -3.18055e-015 -1.59028e-015 3.97569e-015 6.36111e-015 -1.59028e-015 -3.30526e-007 -1.50061e-006 6.9887e-007 -2.38542e-015 -3.18055e-015 -1.59028e-015 3.97569e-015 6.36111e-015 -1.59028e-015 -3.30526e-007 -1.50061e-006 6.9887e-007 4.77083e-015 -3.18055e-015 -3.18055e-015 -2.38542e-015 -3.18055e-015 -1.59028e-015 3.97569e-015 6.36111e-015 -1.59028e-015 -3.30526e-007 -1.50061e-006 6.9887e-007 -2.38542e-015 -3.18055e-015 -1.59028e-015 3.97569e-015 6.36111e-015 -1.59028e-015 -3.30526e-007 -1.50061e-006 6.9887e-007 7.91714 -18.7915 16.3485 23.3988 86.1784 -19.4295 -24.3902 59.34 34.2583 -8.03169 -18.6497 -16.4695 -24.2851 86.037 20.3708 25.3659 60.2308 -35.1698 
